<svg xmlns="http://www.w3.org/2000/svg" width="1200" height="630" viewBox="0 0 1200 630">
  <defs>
    <linearGradient id="bg" x1="0%" y1="0%" x2="100%" y2="100%">
      <stop offset="0%" style="stop-color:#0A0A0F"/>
      <stop offset="100%" style="stop-color:#14141F"/>
    </linearGradient>
    <linearGradient id="accent" x1="0%" y1="0%" x2="100%" y2="0%">
      <stop offset="0%" style="stop-color:#6B8AFF"/>
      <stop offset="100%" style="stop-color:#8AA2FF"/>
    </linearGradient>
    <radialGradient id="glow" cx="50%" cy="50%" r="50%">
      <stop offset="0%" style="stop-color:#6B8AFF;stop-opacity:0.3"/>
      <stop offset="100%" style="stop-color:#6B8AFF;stop-opacity:0"/>
    </radialGradient>
  </defs>
  
  <rect width="1200" height="630" fill="url(#bg)"/>
  <ellipse cx="600" cy="315" rx="500" ry="300" fill="url(#glow)"/>
  
  <g opacity="0.03" stroke="#FFFFFF" stroke-width="1">
    <line x1="0" y1="100" x2="1200" y2="100"/>
    <line x1="0" y1="200" x2="1200" y2="200"/>
    <line x1="0" y1="300" x2="1200" y2="300"/>
    <line x1="0" y1="400" x2="1200" y2="400"/>
    <line x1="0" y1="500" x2="1200" y2="500"/>
    <line x1="200" y1="0" x2="200" y2="630"/>
    <line x1="400" y1="0" x2="400" y2="630"/>
    <line x1="600" y1="0" x2="600" y2="630"/>
    <line x1="800" y1="0" x2="800" y2="630"/>
    <line x1="1000" y1="0" x2="1000" y2="630"/>
  </g>
  
  <g transform="translate(80, 60)">
    <rect width="48" height="48" rx="12" fill="url(#accent)"/>
    <text x="24" y="32" text-anchor="middle" font-size="24">📖</text>
  </g>
  <text x="144" y="93" font-family="Inter, -apple-system, sans-serif" font-size="28" font-weight="700" fill="#FFFFFF">FlowReader</text>
  
  <text x="600" y="220" text-anchor="middle" font-family="Inter, -apple-system, sans-serif" font-size="56" font-weight="700" fill="#FFFFFF" letter-spacing="-2">Lies 2-3x schneller</text>
  <text x="600" y="280" text-anchor="middle" font-family="Inter, -apple-system, sans-serif" font-size="28" fill="#6B7280">RSVP Speed Reading App für iOS</text>
  
  <g transform="translate(460, 340)">
    <rect width="160" height="260" rx="28" fill="#14141F" stroke="#1F1F2E" stroke-width="2"/>
    <rect x="60" y="8" width="40" height="4" rx="2" fill="#1F1F2E"/>
    <text x="80" y="80" text-anchor="middle" font-family="Inter, sans-serif" font-size="11" fill="#FFFFFF">Deine Bibliothek</text>
    <rect x="20" y="95" width="120" height="36" rx="10" fill="#1F1F2E"/>
    <text x="30" y="112" font-family="Inter, sans-serif" font-size="8" fill="#FFFFFF">Untitled</text>
    <text x="30" y="124" font-family="Inter, sans-serif" font-size="7" fill="#6B7280">89% • 109 Wörter</text>
    <rect x="20" y="137" width="120" height="36" rx="10" fill="#1F1F2E"/>
    <text x="30" y="154" font-family="Inter, sans-serif" font-size="8" fill="#FFFFFF">Vaillance</text>
    <text x="30" y="166" font-family="Inter, sans-serif" font-size="7" fill="#6B7280">0% • 39.941 Wörter</text>
    <rect x="20" y="179" width="120" height="36" rx="10" fill="#1F1F2E"/>
    <text x="30" y="196" font-family="Inter, sans-serif" font-size="8" fill="#FFFFFF">Frankenstein</text>
    <text x="30" y="208" font-family="Inter, sans-serif" font-size="7" fill="#6B7280">0% • 78.502 Wörter</text>
    <rect x="20" y="220" width="120" height="24" rx="12" fill="url(#accent)"/>
    <text x="80" y="236" text-anchor="middle" font-family="Inter, sans-serif" font-size="8" font-weight="600" fill="#0A0A0F">+ Importieren</text>
  </g>
  
  <g transform="translate(660, 360)">
    <rect width="160" height="36" rx="18" fill="#14141F" stroke="#1F1F2E"/>
    <text x="80" y="23" text-anchor="middle" font-family="Inter, sans-serif" font-size="12" fill="#FFFFFF">100-1200 WPM</text>
  </g>
  <g transform="translate(660, 410)">
    <rect width="160" height="36" rx="18" fill="#14141F" stroke="#1F1F2E"/>
    <text x="80" y="23" text-anchor="middle" font-family="Inter, sans-serif" font-size="12" fill="#FFFFFF">PDF & ePub Import</text>
  </g>
  <g transform="translate(660, 460)">
    <rect width="160" height="36" rx="18" fill="#14141F" stroke="#1F1F2E"/>
    <text x="80" y="23" text-anchor="middle" font-family="Inter, sans-serif" font-size="12" fill="#FFFFFF">100% Lokal & DSGVO</text>
  </g>
  
  <text x="600" y="580" text-anchor="middle" font-family="Inter, sans-serif" font-size="14" fill="#6B7280">DE • iOS App • Speed Reading</text>
</svg>
